<svg width="32" height="32" viewBox="0 0 32 32" fill="none" xmlns="http://www.w3.org/2000/svg">
<g clip-path="url(#clip0_1609_6543)">
<path d="M0.916992 8.3833V14.5199" stroke="#009B36" stroke-width="2"/>
<path d="M0.916992 14.52V16.6148" stroke="#009B36" stroke-width="2"/>
<path d="M0.916992 16.6147L0.917837 24.9111" stroke="#009B36" stroke-width="2"/>
<path d="M0.9181 24.9109C0.902902 25.6978 0.907124 26.2103 0.930765 26.4484C1.14607 28.6251 2.67599 30.4277 4.80623 30.9115C5.16028 30.992 5.70234 31.0323 6.4324 31.0323C12.865 31.0334 19.2977 31.0334 25.7303 31.0323C26.3394 31.0323 26.7883 31.0058 27.077 30.9529C29.3635 30.5324 31.1247 28.5086 31.1653 26.1639C31.1726 25.7113 31.1734 24.8276 31.1678 23.5127" stroke="#009B36" stroke-width="2"/>
<path d="M31.1677 23.513L31.166 16.4189" stroke="#009B36" stroke-width="2"/>
<path d="M31.166 16.4188V14.0547" stroke="#009B36" stroke-width="2"/>
<path d="M31.1666 14.0546L31.1641 7.61914" stroke="#009B36" stroke-width="2"/>
<path d="M31.1633 7.61932C31.1785 6.54872 31.1743 5.80318 31.1507 5.3827C31.0291 3.19505 29.3168 1.36033 27.2093 0.895102C26.8665 0.819113 26.3839 0.781118 25.7613 0.781118C19.3973 0.781681 13.0334 0.781399 6.66939 0.780273C5.87179 0.780273 5.31059 0.810388 4.9858 0.870617C2.60902 1.30967 0.939789 3.37996 0.925435 5.80486C0.92037 6.66439 0.917555 7.52392 0.916992 8.38344" stroke="#009B36" stroke-width="2"/>
<path d="M31.1637 7.61941L31.1519 7.05033C31.1508 7.00249 31.1415 6.99855 31.1241 7.03851C31.1184 7.0509 31.1184 7.0661 31.1241 7.08411C31.1286 7.06722 31.1286 7.05259 31.1241 7.0402C31.1151 7.01375 31.1018 7.01121 31.0844 7.0326L31.0565 7.06638C31.0447 7.08101 31.0295 7.08805 31.0109 7.08749C30.3765 7.08129 29.7422 7.08889 29.1078 7.11028C28.933 7.11619 28.7743 7.16854 28.6291 7.14997C28.4822 7.13139 28.3437 7.10353 28.1959 7.10437C27.3465 7.10493 26.4971 7.10493 25.6478 7.10437C25.6404 7.10437 25.6331 7.10099 25.6258 7.09424C25.619 7.08833 25.603 7.08073 25.5912 7.08073C24.3956 7.08861 23.1998 7.09227 22.0036 7.09171C21.9614 7.09171 21.9589 7.10184 21.996 7.1221L22.0163 7.13308C22.0338 7.14209 22.036 7.15391 22.0231 7.16854C22.0095 7.1843 21.9966 7.1919 21.9842 7.19134C21.9572 7.19134 21.9443 7.20485 21.9454 7.23187C21.9476 7.29547 21.982 7.32727 22.0484 7.32727C22.052 7.32727 22.0555 7.328 22.0588 7.32942C22.0621 7.33083 22.0651 7.33291 22.0675 7.33553C22.07 7.33814 22.0719 7.34123 22.0731 7.3446C22.0743 7.34797 22.0748 7.35156 22.0746 7.35514C22.0729 7.3709 22.0757 7.36639 22.083 7.34163C22.0831 7.34129 22.0833 7.34099 22.0835 7.34072C22.0838 7.34046 22.084 7.34024 22.0843 7.34008C22.0847 7.33993 22.085 7.33983 22.0853 7.33981C22.0857 7.33978 22.086 7.33983 22.0864 7.33994C22.0867 7.34005 22.087 7.34023 22.0873 7.34045C22.0876 7.34068 22.0878 7.34096 22.0879 7.34128C22.0881 7.34159 22.0882 7.34193 22.0882 7.34228C22.0882 7.34263 22.0882 7.34298 22.0881 7.34332C22.0836 7.39735 22.1058 7.43253 22.1548 7.44886C22.1666 7.4528 22.1733 7.46096 22.175 7.47334C22.1784 7.49417 22.1891 7.50486 22.2071 7.50543C22.2803 7.5088 22.3405 7.51584 22.3878 7.52654C22.4143 7.53273 22.4275 7.54961 22.4275 7.57719V7.62701C22.4275 7.65234 22.4396 7.66219 22.4638 7.65656L22.4933 7.65065C22.5181 7.64559 22.5364 7.65459 22.5482 7.67767L22.636 7.85498" stroke="#009B36" stroke-width="2"/>
<path d="M22.6358 7.85497C19.0685 5.00705 14.1757 4.83988 10.415 7.41001" stroke="#009B36" stroke-width="2"/>
<path d="M10.4148 7.40977L10.4562 7.2274C10.459 7.21445 10.4551 7.20432 10.4444 7.197C10.3571 7.13283 10.2738 7.09962 10.1945 7.09737C9.41824 7.07598 8.39098 7.07261 7.11266 7.08724C5.99421 7.10019 4.87829 7.10553 3.76491 7.10328C3.61011 7.10328 3.4556 7.10553 3.30137 7.11004C3.16121 7.11398 2.94 7.10525 2.63773 7.08386C2.3985 7.06754 2.065 7.0757 1.6372 7.10835C1.56375 7.11426 1.50464 7.14212 1.43879 7.16999C1.41008 7.18237 1.38278 7.1804 1.35689 7.16407L1.1095 7.0121C1.0943 7.00253 1.08051 7.00422 1.06813 7.01716C1.0625 7.02279 1.05715 7.02814 1.05208 7.0332C1.03407 7.05234 1.01916 7.05037 1.00734 7.02729C0.98876 6.99352 0.98088 6.95524 0.983694 6.91247C0.983694 6.9119 0.983131 6.91162 0.982005 6.91162C0.981443 6.91162 0.980598 6.91162 0.979472 6.91162C0.977784 6.91162 0.977221 6.91275 0.977784 6.915C0.983975 6.97804 0.982287 7.04305 0.972718 7.11004C0.972494 7.11429 0.970589 7.11828 0.967422 7.12113C0.964255 7.12398 0.960086 7.12546 0.955831 7.12524C0.951577 7.12501 0.947585 7.12311 0.944735 7.11994C0.941885 7.11677 0.940409 7.1126 0.940633 7.10835V7.07035C0.940468 7.06931 0.940005 7.06829 0.939312 7.06747C0.938619 7.06664 0.937734 7.06604 0.936786 7.06575C0.935839 7.06547 0.934881 7.06552 0.934053 7.06589C0.933225 7.06626 0.932572 7.06694 0.93219 7.06782C0.927687 7.07514 0.925435 7.0833 0.925435 7.09231C0.920932 7.52235 0.918118 7.95268 0.916992 8.38328" stroke="#009B36" stroke-width="2"/>
<path d="M22.6357 7.85498C24.6627 9.53463 25.8771 11.6874 26.279 14.3132" stroke="#009B36" stroke-width="2"/>
<path d="M26.2793 14.313C26.3485 15.0014 26.3668 15.6999 26.3342 16.4086" stroke="#009B36" stroke-width="2"/>
<path d="M26.3338 16.4087C26.0653 19.2558 24.8323 21.5968 22.6348 23.4318" stroke="#009B36" stroke-width="2"/>
<path d="M22.6347 23.4319C19.4017 26.0104 15.0281 26.4149 11.3764 24.4619C11.3494 24.4473 11.3213 24.4448 11.292 24.4543L5.76079 26.2114C5.75739 26.2125 5.75374 26.2126 5.75025 26.2118C5.74676 26.211 5.74357 26.2092 5.74104 26.2067C5.7385 26.2041 5.73672 26.2009 5.73589 26.1974C5.73505 26.194 5.7352 26.1903 5.73631 26.1869L6.69715 23.3491" stroke="#009B36" stroke-width="2"/>
<path d="M6.6975 23.3492L7.54268 20.8609C7.54586 20.8517 7.54691 20.8418 7.54574 20.8319C7.54457 20.8219 7.54122 20.8123 7.53592 20.8035C6.70454 19.4143 6.23228 17.9049 6.11914 16.2754" stroke="#009B36" stroke-width="2"/>
<path d="M6.11906 16.2752C6.06165 15.2828 6.14552 14.296 6.37067 13.3149" stroke="#009B36" stroke-width="2"/>
<path d="M6.37109 13.3154C6.99533 10.8544 8.34344 8.88604 10.4154 7.41016" stroke="#009B36" stroke-width="2"/>
<path d="M31.1661 14.0548C31.1341 14.1139 31.1704 14.1806 31.1493 14.2262C31.1436 14.2386 31.1383 14.2386 31.1332 14.2262L31.0657 14.0725C31.0493 14.0359 31.0263 14.0308 30.9964 14.0573C30.9182 14.1271 30.8253 14.1519 30.7178 14.1316C30.6868 14.1254 30.6835 14.1122 30.7077 14.0919C30.7538 14.0542 30.807 14.0269 30.8672 14.01C30.9033 13.9993 30.9081 13.9808 30.8816 13.9543C30.863 13.9346 30.8402 13.9197 30.8132 13.9095C30.7896 13.9005 30.7716 13.8848 30.7592 13.8623C30.6663 13.69 30.5225 13.6503 30.3277 13.7432C30.3108 13.7517 30.2931 13.755 30.2745 13.7533C30.2655 13.7522 30.2565 13.7522 30.2475 13.7533C30.2092 13.7573 30.1822 13.7635 30.1665 13.7719C29.9706 13.8721 29.735 13.8659 29.4598 13.7533C29.4576 13.7523 29.4553 13.7516 29.4528 13.7515C29.4503 13.7513 29.4478 13.7517 29.4454 13.7525C29.4257 13.757 29.4102 13.7525 29.399 13.739C29.3798 13.7165 29.3553 13.7047 29.3255 13.7035C28.43 13.681 27.5341 13.6684 26.638 13.6655C26.548 13.665 26.4658 13.6872 26.3915 13.7322C26.369 13.7457 26.3445 13.7525 26.318 13.7525H26.2581C26.2294 13.7525 26.2319 13.7671 26.2657 13.7964C26.2769 13.8065 26.2823 13.8186 26.2817 13.8327C26.2817 13.8485 26.2817 13.8578 26.2817 13.8606C26.3059 14.0283 26.3051 14.1792 26.2792 14.3131" stroke="#009B36" stroke-width="2"/>
<path d="M6.3705 13.3153C6.31478 13.3254 6.30352 13.2936 6.33673 13.2199C6.35136 13.1872 6.34067 13.1709 6.30464 13.1709L1.18633 13.1515C1.17564 13.1515 1.17029 13.1458 1.17029 13.1346C1.17029 13.1256 1.17057 13.116 1.17113 13.1059C1.1717 13.0817 1.16213 13.0766 1.14243 13.0907L1.05884 13.1506C1.02901 13.1726 1.01325 13.165 1.01156 13.1278C1.00705 13.0113 1.00283 12.8948 0.998892 12.7783C0.998892 12.776 0.997485 12.7749 0.99467 12.7749L0.973562 12.7766C0.964556 12.7772 0.960053 12.7817 0.960053 12.7901V13.2773C0.960053 13.2936 0.952735 13.3054 0.9381 13.3127C0.927968 13.3172 0.922902 13.3265 0.922902 13.3406C0.918962 13.7335 0.916992 14.1267 0.916992 14.5201" stroke="#009B36" stroke-width="2"/>
<path d="M31.1675 23.5129C31.1355 23.4595 31.1188 23.3953 31.1177 23.3204C31.1172 23.2911 31.1034 23.2712 31.0763 23.2605C31.0274 23.2402 30.9877 23.2425 30.9573 23.2672C30.9365 23.2847 30.9125 23.2909 30.8855 23.2858C30.7352 23.2596 30.6086 23.2039 30.4558 23.2107C30.0162 23.2292 29.5763 23.2357 29.1361 23.2301C28.8178 23.2259 28.6877 23.4108 28.3357 23.2301C28.2293 23.1752 28.0824 23.2292 28.0055 23.2292C26.5786 23.2309 25.1517 23.2298 23.7248 23.2259C23.6184 23.2253 23.4082 23.2019 23.0941 23.1558C23.0913 23.1552 23.0904 23.1538 23.0915 23.1516L23.1 23.1237C23.1073 23.1 23.1008 23.1 23.0806 23.1237C23.0716 23.1355 23.0595 23.1428 23.0443 23.1456C23.0409 23.1462 23.0403 23.1476 23.0426 23.1499C23.0505 23.1583 23.0572 23.1651 23.0628 23.1701C23.0763 23.1814 23.0752 23.1912 23.0595 23.1997L22.6348 23.4319" stroke="#009B36" stroke-width="2"/>
<path d="M6.69739 23.349C6.68782 23.309 6.67375 23.2783 6.65517 23.2569C6.63885 23.2384 6.61014 23.2291 6.56905 23.2291C5.5142 23.2291 4.45908 23.2291 3.40367 23.2291C3.29897 23.2291 3.1681 23.2645 3.04061 23.2409C2.61929 23.1632 2.16588 23.2156 1.73021 23.1649C1.67111 23.1581 1.57401 23.175 1.43892 23.2156C1.41077 23.224 1.38319 23.222 1.35617 23.2097C1.25711 23.1624 1.15494 23.1497 1.04968 23.1717C1.02661 23.1767 1.0131 23.1674 1.00916 23.1438C1.0069 23.1308 1.00296 23.1185 0.997335 23.1066C0.986078 23.0836 0.980449 23.085 0.980449 23.1109L0.979605 23.4072C0.979605 23.4213 0.97285 23.43 0.959341 23.4334C0.940766 23.4379 0.931478 23.4438 0.931478 23.4511C0.940484 23.938 0.935981 24.4246 0.917969 24.911" stroke="#009B36" stroke-width="2"/>
<path d="M6.11889 16.2755C6.1082 16.3312 6.08906 16.3608 6.06148 16.3641C6.05746 16.3647 6.05336 16.3644 6.04945 16.3632C6.04553 16.362 6.0419 16.36 6.03879 16.3572C6.03568 16.3544 6.03316 16.3509 6.03139 16.347C6.02962 16.3431 6.02866 16.3389 6.02855 16.3346C6.02686 16.2744 6.00322 16.2271 5.95763 16.1927C5.94018 16.1804 5.92076 16.1733 5.89937 16.1716C5.47383 16.1457 5.14651 16.1497 4.91741 16.1835C4.58419 16.2319 4.3731 16.2527 4.28417 16.2459C3.76744 16.2096 3.25662 16.2426 2.74074 16.2088C2.488 16.1925 2.28818 16.1899 2.14127 16.2012C2.11031 16.2034 2.07597 16.2231 2.03826 16.2603C2.01799 16.2806 1.99351 16.2921 1.9648 16.2949L1.27499 16.3633C1.25754 16.365 1.24009 16.3644 1.22264 16.3616C1.16522 16.352 1.1171 16.3732 1.07826 16.4249C1.05968 16.4503 1.04308 16.4489 1.02844 16.4207L0.997203 16.3608C0.989323 16.3456 0.98482 16.3467 0.983694 16.3641C0.975251 16.4731 0.974406 16.5516 0.954987 16.6605C0.943166 16.7275 0.932753 16.7272 0.923747 16.6597L0.916992 16.6149" stroke="#009B36" stroke-width="2"/>
<path d="M31.1661 16.4191L31.096 16.1388C31.0945 16.1321 31.0912 16.1259 31.0864 16.1209C31.0816 16.1159 31.0756 16.1123 31.0689 16.1104C31.0622 16.1085 31.0551 16.1084 31.0483 16.1101C31.0415 16.1119 31.0352 16.1153 31.0301 16.1202C30.9783 16.1698 30.9145 16.1897 30.8385 16.1802C30.5877 16.1481 30.38 16.1481 30.1081 16.1895C29.393 16.2984 28.7251 16.203 28.0657 16.1835C27.4257 16.165 27.0711 16.1405 26.5772 16.2106C26.5535 16.2139 26.5358 16.2049 26.524 16.1835C26.5104 16.1588 26.4893 16.1509 26.4606 16.1599C26.4314 16.1689 26.4263 16.1852 26.4454 16.2089C26.4556 16.2213 26.4615 16.2384 26.4632 16.2604C26.4637 16.2699 26.4592 16.2747 26.4497 16.2747C26.4412 16.2747 26.4325 16.2744 26.4235 16.2739C26.4055 16.2728 26.3953 16.2809 26.3931 16.2984C26.388 16.3423 26.3683 16.3791 26.334 16.409" stroke="#009B36" stroke-width="2"/>
<path d="M8.45749 12.2017C7.81243 13.6708 7.59093 15.1824 7.79301 16.7365" stroke="#009B36" stroke-width="2"/>
<path d="M7.79297 16.7363C7.99167 18.1621 8.4946 19.4263 9.30178 20.529C9.31531 20.5472 9.32416 20.5685 9.32754 20.591C9.33093 20.6135 9.32875 20.6366 9.3212 20.6582L8.29788 23.6699C8.29604 23.6753 8.29573 23.681 8.29697 23.6865C8.29821 23.692 8.30095 23.697 8.30489 23.7011C8.30883 23.7051 8.31382 23.7079 8.31929 23.7093C8.32476 23.7107 8.3305 23.7105 8.33587 23.7088L11.5063 22.7006C11.5339 22.6922 11.5598 22.6958 11.584 22.7116C16.845 26.0872 23.8538 22.9007 24.6711 16.7144" stroke="#009B36" stroke-width="2"/>
<path d="M24.6704 16.7144C24.8871 14.9211 24.5722 13.2336 23.7256 11.6519" stroke="#009B36" stroke-width="2"/>
<path d="M23.7258 11.6519C20.335 5.46041 11.3987 5.83191 8.45703 12.2015" stroke="#009B36" stroke-width="2"/>
<path d="M23.7263 11.6519C23.6864 11.6603 23.6551 11.6395 23.6326 11.5894C23.6315 11.5854 23.6306 11.5854 23.6301 11.5894C23.6295 11.5961 23.6295 11.6035 23.6301 11.6113C23.6305 11.618 23.629 11.6246 23.6257 11.6304C23.6225 11.6362 23.6176 11.641 23.6117 11.6441C23.6059 11.6472 23.5992 11.6486 23.5926 11.648C23.5859 11.6474 23.5796 11.645 23.5743 11.6409C23.5451 11.6178 23.5116 11.6009 23.4739 11.5902C23.4497 11.5835 23.428 11.5883 23.4089 11.6046C23.3835 11.626 23.3624 11.6372 23.3455 11.6384C23.1508 11.6485 22.9563 11.6597 22.7621 11.6721C22.5645 11.6848 22.3492 11.6527 22.1373 11.662C21.8665 11.6744 21.7292 11.6806 21.7253 11.6806C19.2745 11.6941 17.4927 11.6924 16.3798 11.6755C15.4336 11.6614 14.687 11.6581 14.1398 11.6654C14.119 11.6654 14.101 11.6724 14.0858 11.6865C14.0689 11.7017 14.0554 11.6989 14.0453 11.678C14.0312 11.6471 14.0177 11.6474 14.0047 11.6789C13.9969 11.6986 14.0014 11.7172 14.0182 11.7346C14.0554 11.7729 14.052 11.8098 14.0081 11.8452" stroke="#009B36" stroke-width="2"/>
<path d="M14.0075 11.845C13.8851 11.5301 13.734 11.0049 13.3194 11.0083C12.6743 11.0142 12.1804 11.1831 11.7734 11.8096" stroke="#009B36" stroke-width="2"/>
<path d="M11.7735 11.8096C11.791 11.7798 11.773 11.7621 11.7195 11.7564C11.717 11.7558 11.7147 11.7544 11.7131 11.7524C11.7114 11.7504 11.7105 11.7479 11.7104 11.7454C11.7103 11.7428 11.711 11.7402 11.7125 11.7381C11.714 11.736 11.7162 11.7344 11.7187 11.7336C11.735 11.7308 11.7443 11.7249 11.7465 11.7159C11.7475 11.7111 11.7475 11.7062 11.7463 11.7014C11.7452 11.6967 11.743 11.6922 11.7399 11.6884C11.7368 11.6846 11.733 11.6816 11.7286 11.6795C11.7242 11.6773 11.7193 11.6762 11.7144 11.6762L8.90284 11.6602C8.87807 11.6596 8.86343 11.6717 8.85893 11.6965L8.84711 11.7682C8.84542 11.7784 8.84036 11.7865 8.83191 11.7927C8.80771 11.8107 8.78885 11.8116 8.77534 11.7953C8.77452 11.7944 8.77356 11.7936 8.77253 11.793C8.77149 11.7925 8.77039 11.7921 8.76929 11.7919C8.76819 11.7918 8.76712 11.7918 8.76613 11.7921C8.76514 11.7924 8.76425 11.7929 8.76352 11.7936C8.74889 11.806 8.74326 11.8206 8.74664 11.8375C8.75001 11.8555 8.7427 11.862 8.72468 11.8569C8.6926 11.8479 8.6729 11.8606 8.66558 11.8949C8.65714 11.9371 8.65376 11.9619 8.65545 11.9692C8.66108 12.0069 8.65432 12.0449 8.63518 12.0832C8.6273 12.0984 8.61689 12.1006 8.60394 12.0899C8.59719 12.0837 8.59128 12.0739 8.58621 12.0604C8.58482 12.0553 8.58156 12.0509 8.57709 12.0481C8.57261 12.0453 8.56724 12.0442 8.56204 12.0452C8.55684 12.0461 8.55218 12.049 8.549 12.0532C8.54581 12.0575 8.54433 12.0627 8.54484 12.068C8.54709 12.1879 8.51782 12.2323 8.45703 12.2014" stroke="#009B36" stroke-width="2"/>
<path d="M14.0078 11.8452C14.2211 12.3681 14.4367 12.8908 14.6545 13.4131C14.8952 13.9881 13.6768 14.6534 13.8718 15.003C14.6863 16.4564 15.8734 17.4788 17.4332 18.0704C17.5694 18.1222 17.6823 18.1006 17.7718 18.0054C18.051 17.7082 18.3338 17.3651 18.6203 16.9762C18.8458 16.6714 19.1345 16.8403 19.4207 16.9669" stroke="#009B36" stroke-width="2"/>
<path d="M19.4206 16.9668C20.0251 17.2539 20.6249 17.5505 21.2199 17.8567C21.3206 17.9085 21.3724 17.9935 21.3752 18.1117C21.3896 18.7171 21.2207 19.347 20.7243 19.7353C20.1712 20.1685 19.2593 20.5071 18.5535 20.3399C16.994 19.9692 15.4996 19.3579 14.2972 18.2713C13.8244 17.8435 13.4219 17.4298 13.0898 17.0301" stroke="#009B36" stroke-width="2"/>
<path d="M13.0903 17.03C11.9302 15.5803 10.5244 13.6831 11.774 11.8096" stroke="#009B36" stroke-width="2"/>
<path d="M24.6709 16.7146L24.5839 16.7957C24.5603 16.8171 24.549 16.8117 24.5502 16.7797C24.5507 16.756 24.546 16.7315 24.5358 16.7062C24.5229 16.6736 24.4987 16.6572 24.4632 16.6572L19.2537 16.6606C19.2211 16.6606 19.2008 16.6764 19.1929 16.7079C19.1901 16.7191 19.1867 16.7307 19.1828 16.7425C19.1815 16.747 19.1813 16.7517 19.1822 16.7563C19.1832 16.7608 19.1852 16.7651 19.1881 16.7686C19.1911 16.7721 19.1948 16.7748 19.1991 16.7765C19.2033 16.7781 19.2079 16.7786 19.2123 16.778C19.2838 16.7678 19.3224 16.7943 19.328 16.8573C19.3297 16.8787 19.3412 16.8914 19.3626 16.8953C19.4048 16.9038 19.4243 16.9277 19.4209 16.9671" stroke="#009B36" stroke-width="2"/>
<path d="M13.0903 17.0302L13.0244 17.0082C12.9997 16.9998 12.9861 17.0085 12.9839 17.0344C12.9811 17.0648 12.9943 17.0848 13.0236 17.0944C13.0399 17.1163 13.0526 17.1405 13.0616 17.167C13.0695 17.1923 13.061 17.21 13.0362 17.2202C12.9895 17.2399 12.9538 17.2337 12.929 17.2016C12.9149 17.183 12.9102 17.1557 12.9147 17.1197C12.9248 17.0431 12.931 16.9683 12.9332 16.8951C12.9335 16.8884 12.9317 16.8817 12.9281 16.8759C12.9245 16.8702 12.9193 16.8657 12.9131 16.863C12.9069 16.8602 12.9001 16.8594 12.8934 16.8606C12.8868 16.8619 12.8806 16.865 12.8758 16.8698L12.8564 16.89C12.8339 16.912 12.8221 16.9072 12.8209 16.8757L12.8201 16.847C12.8199 16.8421 12.8187 16.8372 12.8166 16.8328C12.8145 16.8284 12.8115 16.8244 12.8079 16.8212C12.8043 16.8179 12.8 16.8155 12.7955 16.814C12.7909 16.8124 12.786 16.8119 12.7813 16.8124C12.7407 16.8163 12.7084 16.8022 12.6842 16.7701C12.6706 16.7521 12.6749 16.744 12.6968 16.7457L12.7483 16.7507C12.7765 16.753 12.7874 16.7403 12.7813 16.7127L12.7728 16.6773C12.7694 16.6621 12.7599 16.6545 12.7441 16.6545C12.4227 16.6562 12.1013 16.6573 11.7799 16.6578C11.6634 16.6584 11.4295 16.6775 11.0782 16.7153C10.7174 16.7535 10.3105 16.742 9.85735 16.6806C9.2984 16.6052 8.61028 16.6238 7.79297 16.7364" stroke="#009B36" stroke-width="2"/>
<path d="M31.1633 7.61932L31.1515 7.05025C31.1504 7.0024 31.1411 6.99846 31.1236 7.03843C31.118 7.05081 31.118 7.06601 31.1236 7.08402C31.1281 7.06713 31.1281 7.0525 31.1236 7.04012C31.1146 7.01366 31.1014 7.01113 31.084 7.03252L31.0561 7.06629C31.0443 7.08092 31.0291 7.08796 31.0105 7.0874C30.3761 7.08121 29.7418 7.08881 29.1074 7.11019C28.9326 7.11611 28.7739 7.16845 28.6287 7.14988C28.4817 7.1313 28.3433 7.10344 28.1955 7.10428C27.3461 7.10485 26.4967 7.10485 25.6473 7.10428C25.64 7.10428 25.6327 7.10091 25.6254 7.09415C25.6186 7.08824 25.6026 7.08064 25.5908 7.08064C24.3952 7.08852 23.1993 7.09218 22.0032 7.09162C21.961 7.09162 21.9585 7.10175 21.9956 7.12201L22.0159 7.13299C22.0333 7.142 22.0356 7.15382 22.0226 7.16845C22.0091 7.18421 21.9962 7.19181 21.9838 7.19125C21.9568 7.19125 21.9438 7.20476 21.945 7.23178C21.9472 7.29538 21.9815 7.32719 22.048 7.32719C22.0516 7.32718 22.0551 7.32791 22.0584 7.32933C22.0617 7.33075 22.0646 7.33283 22.0671 7.33544C22.0696 7.33805 22.0714 7.34114 22.0727 7.34451C22.0739 7.34789 22.0744 7.35147 22.0741 7.35505C22.0725 7.37081 22.0753 7.36631 22.0826 7.34154C22.0827 7.34121 22.0829 7.3409 22.0831 7.34063C22.0833 7.34037 22.0836 7.34015 22.0839 7.34C22.0842 7.33984 22.0846 7.33975 22.0849 7.33972C22.0853 7.3397 22.0856 7.33974 22.086 7.33985C22.0863 7.33996 22.0866 7.34014 22.0869 7.34037C22.0871 7.3406 22.0873 7.34088 22.0875 7.34119C22.0877 7.3415 22.0878 7.34185 22.0878 7.3422C22.0878 7.34255 22.0878 7.3429 22.0877 7.34323C22.0831 7.39727 22.1054 7.43245 22.1544 7.44877C22.1662 7.45271 22.1729 7.46087 22.1746 7.47326C22.178 7.49408 22.1887 7.50478 22.2067 7.50534C22.2799 7.50872 22.3401 7.51575 22.3874 7.52645C22.4138 7.53264 22.4271 7.54953 22.4271 7.57711V7.62692C22.4271 7.65225 22.4392 7.6621 22.4634 7.65647L22.4929 7.65056C22.5177 7.6455 22.536 7.6545 22.5478 7.67758L22.6356 7.85489C19.0683 5.00698 14.1755 4.8398 10.4148 7.40993L10.4562 7.22756C10.459 7.21461 10.4551 7.20448 10.4444 7.19716C10.3571 7.13299 10.2738 7.09978 10.1945 7.09753C9.41824 7.07614 8.39098 7.07276 7.11266 7.0874C5.99421 7.10034 4.87829 7.10569 3.76491 7.10344C3.61011 7.10344 3.4556 7.10569 3.30137 7.11019C3.16121 7.11413 2.94 7.10541 2.63773 7.08402C2.3985 7.0677 2.065 7.07586 1.6372 7.10851C1.56375 7.11442 1.50464 7.14228 1.43879 7.17014C1.41008 7.18253 1.38278 7.18056 1.35689 7.16423L1.1095 7.01225C1.0943 7.00268 1.08051 7.00437 1.06813 7.01732C1.0625 7.02295 1.05715 7.0283 1.05208 7.03336C1.03407 7.0525 1.01916 7.05053 1.00734 7.02745C0.98876 6.99368 0.98088 6.9554 0.983694 6.91262C0.983694 6.91206 0.983131 6.91178 0.982005 6.91178C0.981443 6.91178 0.980598 6.91178 0.979472 6.91178C0.977784 6.91178 0.977221 6.9129 0.977784 6.91516C0.983975 6.9782 0.982287 7.04321 0.972718 7.11019C0.972494 7.11445 0.970589 7.11844 0.967422 7.12129C0.964255 7.12414 0.960086 7.12562 0.955831 7.12539C0.951577 7.12517 0.947585 7.12326 0.944735 7.1201C0.941885 7.11693 0.940409 7.11276 0.940633 7.10851V7.07051C0.940468 7.06946 0.940005 7.06845 0.939312 7.06762C0.938619 7.06679 0.937734 7.06619 0.936786 7.06591C0.935839 7.06562 0.934881 7.06567 0.934053 7.06605C0.933225 7.06642 0.932572 7.0671 0.93219 7.06798C0.927687 7.0753 0.925435 7.08346 0.925435 7.09246C0.920932 7.52251 0.918118 7.95283 0.916992 8.38344C0.917555 7.52392 0.92037 6.66439 0.925435 5.80486C0.939789 3.37996 2.60902 1.30967 4.98581 0.870617C5.31059 0.810388 5.87179 0.780273 6.66939 0.780273C13.0334 0.781399 19.3973 0.781681 25.7613 0.781118C26.3839 0.781118 26.8665 0.819113 27.2093 0.895102C29.3168 1.36033 31.0291 3.19505 31.1507 5.3827C31.1743 5.80318 31.1785 6.54872 31.1633 7.61932Z" fill="#009B36"/>
<path d="M22.6355 7.85497C24.6625 9.53462 25.8769 11.6874 26.2788 14.3132C26.348 15.0016 26.3663 15.7002 26.3337 16.4088C26.0652 19.2559 24.8322 21.597 22.6347 23.432C19.4017 26.0105 15.0281 26.415 11.3764 24.462C11.3494 24.4474 11.3213 24.4449 11.292 24.4544L5.76079 26.2115C5.75739 26.2126 5.75374 26.2127 5.75025 26.2119C5.74676 26.2111 5.74357 26.2093 5.74104 26.2068C5.7385 26.2042 5.73672 26.201 5.73589 26.1975C5.73505 26.1941 5.7352 26.1904 5.73631 26.187L6.69715 23.3492L7.54233 20.861C7.54551 20.8518 7.54656 20.8418 7.54539 20.8319C7.54422 20.822 7.54087 20.8123 7.53557 20.8036C6.70419 19.4144 6.23193 17.905 6.11879 16.2754C6.06138 15.2831 6.14525 14.2963 6.3704 13.3152C6.99464 10.8543 8.34275 8.88589 10.4147 7.41001C14.1754 4.83988 19.0682 5.00705 22.6355 7.85497ZM8.45673 12.2016C7.81167 13.6707 7.59017 15.1823 7.79225 16.7364C7.99094 18.1622 8.49388 19.4265 9.30106 20.5292C9.31459 20.5473 9.32343 20.5686 9.32682 20.5911C9.3302 20.6137 9.32803 20.6367 9.32048 20.6583L8.29715 23.6701C8.29532 23.6754 8.29501 23.6811 8.29624 23.6866C8.29748 23.6921 8.30023 23.6972 8.30417 23.7012C8.30811 23.7052 8.3131 23.7081 8.31857 23.7094C8.32404 23.7108 8.32978 23.7106 8.33515 23.7089L11.5056 22.7008C11.5332 22.6923 11.5591 22.696 11.5833 22.7117C16.8443 26.0874 23.853 22.9009 24.6703 16.7145C24.8871 14.9211 24.5721 13.2336 23.7255 11.6519C20.3347 5.46046 11.3984 5.83196 8.45673 12.2016Z" fill="white"/>
<path d="M10.4148 7.40977C8.34285 8.88566 6.99474 10.8541 6.3705 13.315C6.31478 13.3251 6.30352 13.2933 6.33673 13.2196C6.35136 13.1869 6.34067 13.1706 6.30464 13.1706L1.18633 13.1512C1.17564 13.1512 1.17029 13.1456 1.17029 13.1343C1.17029 13.1253 1.17057 13.1157 1.17113 13.1056C1.1717 13.0814 1.16213 13.0763 1.14243 13.0904L1.05884 13.1504C1.02901 13.1723 1.01325 13.1647 1.01156 13.1276C1.00705 13.011 1.00283 12.8945 0.998892 12.778C0.998892 12.7758 0.997485 12.7746 0.99467 12.7746L0.973562 12.7763C0.964556 12.7769 0.960053 12.7814 0.960053 12.7898V13.277C0.960053 13.2933 0.952735 13.3051 0.9381 13.3125C0.927968 13.317 0.922902 13.3263 0.922902 13.3403C0.918962 13.7332 0.916992 14.1264 0.916992 14.5199V8.38328C0.918118 7.95268 0.920932 7.52235 0.925435 7.09231C0.925435 7.0833 0.927687 7.07514 0.93219 7.06782C0.932572 7.06694 0.933225 7.06626 0.934053 7.06589C0.934881 7.06552 0.935839 7.06547 0.936786 7.06575C0.937734 7.06604 0.938619 7.06664 0.939312 7.06747C0.940005 7.06829 0.940468 7.06931 0.940633 7.07035V7.10835C0.940409 7.1126 0.941885 7.11677 0.944735 7.11994C0.947585 7.12311 0.951577 7.12501 0.955831 7.12524C0.960086 7.12546 0.964255 7.12398 0.967422 7.12113C0.970589 7.11828 0.972494 7.11429 0.972718 7.11004C0.982287 7.04305 0.983975 6.97804 0.977784 6.915C0.977221 6.91275 0.977784 6.91162 0.979472 6.91162C0.980598 6.91162 0.981443 6.91162 0.982005 6.91162C0.983131 6.91162 0.983694 6.9119 0.983694 6.91247C0.98088 6.95524 0.98876 6.99352 1.00734 7.02729C1.01916 7.05037 1.03407 7.05234 1.05208 7.0332C1.05715 7.02814 1.0625 7.02279 1.06813 7.01716C1.08051 7.00422 1.0943 7.00253 1.1095 7.0121L1.35689 7.16407C1.38278 7.1804 1.41008 7.18237 1.43879 7.16999C1.50464 7.14212 1.56375 7.11426 1.6372 7.10835C2.065 7.0757 2.3985 7.06754 2.63773 7.08386C2.94 7.10525 3.16121 7.11398 3.30137 7.11004C3.4556 7.10553 3.61011 7.10328 3.76491 7.10328C4.87829 7.10553 5.99421 7.10019 7.11266 7.08724C8.39098 7.07261 9.41824 7.07598 10.1945 7.09737C10.2738 7.09962 10.3571 7.13283 10.4444 7.197C10.4551 7.20432 10.459 7.21445 10.4562 7.2274L10.4148 7.40977Z" fill="#009B36"/>
<path d="M31.1637 7.61941L31.1663 14.0549C31.1342 14.114 31.1705 14.1807 31.1494 14.2263C31.1438 14.2387 31.1384 14.2387 31.1333 14.2263L31.0658 14.0726C31.0495 14.036 31.0264 14.031 30.9966 14.0574C30.9183 14.1272 30.8254 14.152 30.7179 14.1317C30.687 14.1255 30.6836 14.1123 30.7078 14.092C30.754 14.0543 30.8072 14.027 30.8674 14.0101C30.9034 13.9994 30.9082 13.9809 30.8817 13.9544C30.8632 13.9347 30.8404 13.9198 30.8133 13.9096C30.7897 13.9006 30.7717 13.8849 30.7593 13.8624C30.6664 13.6901 30.5226 13.6504 30.3279 13.7433C30.311 13.7518 30.2932 13.7551 30.2747 13.7534C30.2657 13.7523 30.2567 13.7523 30.2476 13.7534C30.2094 13.7574 30.1824 13.7636 30.1666 13.772C29.9707 13.8722 29.7351 13.866 29.4599 13.7534C29.4578 13.7524 29.4554 13.7517 29.4529 13.7516C29.4505 13.7514 29.448 13.7518 29.4455 13.7526C29.4258 13.7571 29.4104 13.7526 29.3991 13.7391C29.38 13.7166 29.3555 13.7048 29.3256 13.7036C28.4301 13.6811 27.5343 13.6685 26.6381 13.6656C26.5481 13.6651 26.4659 13.6873 26.3916 13.7323C26.3691 13.7458 26.3446 13.7526 26.3181 13.7526H26.2582C26.2295 13.7526 26.232 13.7672 26.2658 13.7965C26.2771 13.8066 26.2824 13.8187 26.2818 13.8328C26.2818 13.8486 26.2818 13.8579 26.2818 13.8607C26.306 14.0284 26.3052 14.1793 26.2793 14.3132C25.8774 11.6874 24.663 9.53463 22.636 7.85498L22.5482 7.67767C22.5364 7.65459 22.5181 7.64559 22.4933 7.65065L22.4638 7.65656C22.4396 7.66219 22.4275 7.65234 22.4275 7.62701V7.57719C22.4275 7.54961 22.4143 7.53273 22.3878 7.52654C22.3405 7.51584 22.2803 7.5088 22.2071 7.50543C22.1891 7.50486 22.1784 7.49417 22.175 7.47334C22.1733 7.46096 22.1666 7.4528 22.1548 7.44886C22.1058 7.43253 22.0836 7.39735 22.0881 7.34332C22.0882 7.34298 22.0882 7.34263 22.0882 7.34228C22.0882 7.34193 22.0881 7.34159 22.0879 7.34128C22.0878 7.34096 22.0876 7.34068 22.0873 7.34045C22.087 7.34023 22.0867 7.34005 22.0864 7.33994C22.086 7.33983 22.0857 7.33978 22.0853 7.33981C22.085 7.33983 22.0847 7.33993 22.0843 7.34008C22.084 7.34024 22.0838 7.34046 22.0835 7.34072C22.0833 7.34099 22.0831 7.34129 22.083 7.34163C22.0757 7.36639 22.0729 7.3709 22.0746 7.35514C22.0748 7.35156 22.0743 7.34797 22.0731 7.3446C22.0719 7.34123 22.07 7.33814 22.0675 7.33553C22.0651 7.33291 22.0621 7.33083 22.0588 7.32942C22.0555 7.328 22.052 7.32727 22.0484 7.32727C21.982 7.32727 21.9476 7.29547 21.9454 7.23187C21.9443 7.20485 21.9572 7.19134 21.9842 7.19134C21.9966 7.1919 22.0095 7.1843 22.0231 7.16854C22.036 7.15391 22.0338 7.14209 22.0163 7.13308L21.996 7.1221C21.9589 7.10184 21.9614 7.09171 22.0036 7.09171C23.1998 7.09227 24.3956 7.08861 25.5912 7.08073C25.603 7.08073 25.619 7.08833 25.6258 7.09424C25.6331 7.10099 25.6404 7.10437 25.6478 7.10437C26.4971 7.10493 27.3465 7.10493 28.1959 7.10437C28.3437 7.10353 28.4822 7.13139 28.6291 7.14997C28.7743 7.16854 28.933 7.11619 29.1078 7.11028C29.7422 7.08889 30.3765 7.08129 31.0109 7.08749C31.0295 7.08805 31.0447 7.08101 31.0565 7.06638L31.0844 7.0326C31.1018 7.01121 31.1151 7.01375 31.1241 7.0402C31.1286 7.05259 31.1286 7.06722 31.1241 7.08411C31.1184 7.0661 31.1184 7.0509 31.1241 7.03851C31.1415 6.99855 31.1508 7.00249 31.1519 7.05033L31.1637 7.61941Z" fill="#009B36"/>
<path d="M23.7258 11.6519C23.6859 11.6603 23.6546 11.6395 23.6321 11.5894C23.631 11.5854 23.6302 11.5854 23.6296 11.5894C23.629 11.5961 23.629 11.6035 23.6296 11.6113C23.63 11.618 23.6285 11.6246 23.6252 11.6304C23.622 11.6362 23.6171 11.641 23.6113 11.6441C23.6054 11.6472 23.5987 11.6486 23.5921 11.648C23.5855 11.6474 23.5791 11.645 23.5739 11.6409C23.5446 11.6178 23.5111 11.6009 23.4734 11.5902C23.4492 11.5835 23.4275 11.5883 23.4084 11.6046C23.383 11.626 23.3619 11.6372 23.3451 11.6383C23.1503 11.6485 22.9558 11.6597 22.7616 11.6721C22.564 11.6848 22.3487 11.6527 22.1368 11.662C21.8661 11.6744 21.7287 11.6806 21.7248 11.6806C19.274 11.6941 17.4922 11.6924 16.3794 11.6755C15.4331 11.6614 14.6865 11.6581 14.1394 11.6654C14.1185 11.6654 14.1005 11.6724 14.0853 11.6865C14.0684 11.7017 14.0549 11.6989 14.0448 11.678C14.0307 11.6471 14.0172 11.6474 14.0043 11.6789C13.9964 11.6986 14.0009 11.7172 14.0178 11.7346C14.0549 11.7729 14.0515 11.8097 14.0076 11.8452C13.8852 11.5303 13.7341 11.0051 13.3195 11.0085C12.6744 11.0144 12.1805 11.1833 11.7735 11.8097C11.791 11.7799 11.773 11.7622 11.7195 11.7566C11.717 11.756 11.7147 11.7546 11.7131 11.7526C11.7114 11.7506 11.7105 11.7481 11.7104 11.7455C11.7103 11.7429 11.711 11.7403 11.7125 11.7382C11.714 11.7361 11.7162 11.7345 11.7187 11.7338C11.735 11.7309 11.7443 11.725 11.7465 11.716C11.7475 11.7112 11.7475 11.7063 11.7463 11.7016C11.7452 11.6968 11.743 11.6924 11.7399 11.6886C11.7368 11.6848 11.733 11.6817 11.7286 11.6796C11.7242 11.6775 11.7193 11.6764 11.7144 11.6763L8.90284 11.6603C8.87807 11.6597 8.86343 11.6718 8.85893 11.6966L8.84711 11.7684C8.84542 11.7785 8.84036 11.7867 8.83191 11.7929C8.80771 11.8109 8.78885 11.8117 8.77534 11.7954C8.77452 11.7945 8.77356 11.7937 8.77253 11.7932C8.77149 11.7926 8.77039 11.7922 8.76929 11.792C8.76819 11.7919 8.76712 11.792 8.76613 11.7922C8.76514 11.7925 8.76425 11.793 8.76352 11.7937C8.74889 11.8061 8.74326 11.8207 8.74664 11.8376C8.75001 11.8556 8.7427 11.8621 8.72468 11.857C8.6926 11.848 8.6729 11.8607 8.66558 11.895C8.65714 11.9372 8.65376 11.962 8.65545 11.9693C8.66108 12.007 8.65432 12.045 8.63518 12.0833C8.6273 12.0985 8.61689 12.1008 8.60394 12.0901C8.59719 12.0839 8.59128 12.074 8.58621 12.0605C8.58482 12.0554 8.58156 12.051 8.57709 12.0482C8.57261 12.0454 8.56724 12.0444 8.56204 12.0453C8.55684 12.0463 8.55218 12.0491 8.549 12.0534C8.54581 12.0576 8.54433 12.0628 8.54484 12.0681C8.54709 12.188 8.51782 12.2325 8.45703 12.2015C11.3987 5.83191 20.335 5.46041 23.7258 11.6519Z" fill="#009B36"/>
<path d="M14.0081 11.845C14.2214 12.368 14.437 12.8906 14.6548 13.413C14.8955 13.9879 13.6771 14.6533 13.8722 15.0028C14.6866 16.4562 15.8738 17.4787 17.4335 18.0703C17.5697 18.1221 17.6826 18.1004 17.7721 18.0053C18.0513 17.7081 18.3341 17.365 18.6206 16.976C18.8461 16.6712 19.1348 16.8401 19.4211 16.9667C20.0256 17.2538 20.6254 17.5504 21.2203 17.8567C21.3211 17.9084 21.3729 17.9934 21.3757 18.1116C21.39 18.717 21.2212 19.3469 20.7247 19.7353C20.1717 20.1684 19.2598 20.507 18.5539 20.3398C16.9945 19.9692 15.5 19.3579 14.2977 18.2712C13.8249 17.8434 13.4224 17.4297 13.0903 17.0301C11.9302 15.5803 10.5244 13.6831 11.774 11.8096C12.181 11.1831 12.6749 11.0142 13.32 11.0083C13.7345 11.0049 13.8857 11.5301 14.0081 11.845Z" fill="white"/>
<path d="M23.726 11.6519C24.5726 13.2336 24.8875 14.9211 24.6708 16.7144L24.5838 16.7955C24.5602 16.8169 24.5489 16.8115 24.55 16.7795C24.5506 16.7558 24.5458 16.7313 24.5357 16.706C24.5227 16.6734 24.4985 16.657 24.4631 16.657L19.2536 16.6604C19.2209 16.6604 19.2007 16.6762 19.1928 16.7077C19.19 16.719 19.1866 16.7305 19.1826 16.7423C19.1813 16.7468 19.1812 16.7515 19.1821 16.7561C19.183 16.7606 19.1851 16.7649 19.188 16.7684C19.1909 16.7719 19.1947 16.7746 19.1989 16.7763C19.2032 16.7779 19.2077 16.7784 19.2122 16.7778C19.2837 16.7676 19.3222 16.7941 19.3279 16.8571C19.3296 16.8785 19.3411 16.8912 19.3625 16.8951C19.4047 16.9036 19.4241 16.9275 19.4207 16.9669C19.1345 16.8403 18.8458 16.6714 18.6203 16.9762C18.3338 17.3651 18.051 17.7082 17.7718 18.0054C17.6823 18.1006 17.5694 18.1222 17.4332 18.0704C15.8734 17.4788 14.6863 16.4564 13.8718 15.003C13.6768 14.6534 14.8952 13.9881 14.6545 13.4131C14.4367 12.8908 14.2211 12.3681 14.0078 11.8452C14.0517 11.8098 14.055 11.7729 14.0179 11.7346C14.001 11.7172 13.9965 11.6986 14.0044 11.6789C14.0173 11.6474 14.0308 11.6471 14.0449 11.678C14.0551 11.6989 14.0686 11.7017 14.0854 11.6865C14.1006 11.6724 14.1187 11.6654 14.1395 11.6654C14.6866 11.6581 15.4333 11.6614 16.3795 11.6755C17.4923 11.6924 19.2741 11.6941 21.7249 11.6806C21.7289 11.6806 21.8662 11.6744 22.1369 11.662C22.3489 11.6527 22.5642 11.6848 22.7618 11.6721C22.9559 11.6597 23.1504 11.6485 23.3452 11.6384C23.3621 11.6372 23.3832 11.626 23.4085 11.6046C23.4276 11.5883 23.4493 11.5835 23.4735 11.5902C23.5112 11.6009 23.5447 11.6178 23.574 11.6409C23.5793 11.645 23.5856 11.6474 23.5922 11.648C23.5989 11.6486 23.6055 11.6472 23.6114 11.6441C23.6173 11.641 23.6221 11.6362 23.6254 11.6304C23.6286 11.6246 23.6301 11.618 23.6297 11.6113C23.6292 11.6035 23.6292 11.5961 23.6297 11.5894C23.6303 11.5854 23.6311 11.5854 23.6323 11.5894C23.6548 11.6395 23.686 11.6603 23.726 11.6519Z" fill="#009B36"/>
<path d="M11.774 11.8096C10.5244 13.6832 11.9302 15.5804 13.0903 17.0301L13.0245 17.0081C12.9997 16.9997 12.9862 17.0084 12.9839 17.0343C12.9811 17.0647 12.9943 17.0847 13.0236 17.0943C13.0399 17.1162 13.0526 17.1404 13.0616 17.1669C13.0695 17.1922 13.061 17.2099 13.0363 17.2201C12.9896 17.2398 12.9538 17.2336 12.929 17.2015C12.915 17.1829 12.9102 17.1556 12.9147 17.1196C12.9248 17.043 12.931 16.9682 12.9333 16.895C12.9335 16.8882 12.9317 16.8816 12.9281 16.8758C12.9246 16.8701 12.9193 16.8656 12.9132 16.8629C12.907 16.8601 12.9001 16.8593 12.8935 16.8605C12.8868 16.8618 12.8807 16.8649 12.8759 16.8697L12.8564 16.8899C12.8339 16.9119 12.8221 16.9071 12.821 16.8756L12.8201 16.8469C12.8199 16.842 12.8187 16.8371 12.8166 16.8327C12.8145 16.8283 12.8116 16.8243 12.8079 16.8211C12.8043 16.8178 12.8001 16.8154 12.7955 16.8139C12.7909 16.8123 12.7861 16.8118 12.7813 16.8123C12.7408 16.8162 12.7084 16.8021 12.6842 16.77C12.6707 16.752 12.6749 16.7439 12.6969 16.7456L12.7484 16.7506C12.7765 16.7529 12.7875 16.7402 12.7813 16.7126L12.7728 16.6772C12.7695 16.662 12.7599 16.6544 12.7441 16.6544C12.4227 16.6561 12.1013 16.6572 11.7799 16.6577C11.6634 16.6583 11.4295 16.6774 11.0783 16.7152C10.7175 16.7534 10.3105 16.7419 9.85739 16.6805C9.29844 16.6051 8.61032 16.6237 7.79301 16.7363C7.59093 15.1821 7.81243 13.6705 8.45749 12.2014C8.51828 12.2323 8.54755 12.1879 8.5453 12.068C8.54479 12.0627 8.54628 12.0575 8.54946 12.0532C8.55264 12.049 8.5573 12.0461 8.5625 12.0452C8.5677 12.0442 8.57307 12.0453 8.57755 12.0481C8.58202 12.0509 8.58528 12.0553 8.58667 12.0604C8.59174 12.0739 8.59765 12.0837 8.60441 12.0899C8.61735 12.1006 8.62777 12.0984 8.63565 12.0832C8.65478 12.0449 8.66154 12.0069 8.65591 11.9692C8.65422 11.9619 8.6576 11.9371 8.66604 11.8949C8.67336 11.8606 8.69306 11.8479 8.72514 11.8569C8.74316 11.862 8.75047 11.8555 8.7471 11.8375C8.74372 11.8206 8.74935 11.806 8.76398 11.7936C8.76471 11.7929 8.7656 11.7924 8.76659 11.7921C8.76758 11.7918 8.76865 11.7918 8.76975 11.7919C8.77085 11.7921 8.77195 11.7925 8.77299 11.793C8.77403 11.7936 8.77498 11.7944 8.7758 11.7953C8.78931 11.8116 8.80817 11.8107 8.83237 11.7927C8.84082 11.7865 8.84588 11.7784 8.84757 11.7682L8.85939 11.6965C8.8639 11.6717 8.87853 11.6596 8.9033 11.6602L11.7149 11.6762C11.7198 11.6762 11.7246 11.6773 11.729 11.6795C11.7334 11.6816 11.7373 11.6846 11.7404 11.6884C11.7434 11.6922 11.7456 11.6967 11.7468 11.7014C11.7479 11.7062 11.748 11.7111 11.747 11.7159C11.7447 11.7249 11.7355 11.7308 11.7191 11.7336C11.7167 11.7344 11.7145 11.736 11.713 11.7381C11.7115 11.7402 11.7107 11.7428 11.7108 11.7454C11.7109 11.7479 11.7119 11.7504 11.7135 11.7524C11.7152 11.7544 11.7174 11.7558 11.72 11.7564C11.7734 11.7621 11.7915 11.7798 11.774 11.8096Z" fill="#009B36"/>
<path d="M6.3705 13.3153C6.14535 14.2964 6.06148 15.2831 6.11889 16.2755C6.1082 16.3312 6.08906 16.3608 6.06148 16.3641C6.05746 16.3647 6.05336 16.3644 6.04945 16.3632C6.04553 16.362 6.0419 16.3599 6.03879 16.3571C6.03568 16.3544 6.03316 16.3509 6.03139 16.347C6.02962 16.3431 6.02866 16.3389 6.02855 16.3346C6.02686 16.2744 6.00322 16.2271 5.95763 16.1927C5.94018 16.1804 5.92076 16.1733 5.89937 16.1716C5.47383 16.1457 5.14651 16.1497 4.91741 16.1835C4.58419 16.2319 4.3731 16.2527 4.28417 16.2459C3.76744 16.2096 3.25662 16.2426 2.74074 16.2088C2.488 16.1925 2.28818 16.1899 2.14127 16.2012C2.11031 16.2034 2.07597 16.2231 2.03826 16.2603C2.01799 16.2805 1.99351 16.2921 1.9648 16.2949L1.27499 16.3633C1.25754 16.365 1.24009 16.3644 1.22264 16.3616C1.16522 16.352 1.1171 16.3731 1.07826 16.4249C1.05968 16.4503 1.04308 16.4489 1.02844 16.4207L0.997203 16.3608C0.989323 16.3456 0.98482 16.3467 0.983694 16.3641C0.975251 16.4731 0.974406 16.5516 0.954987 16.6605C0.943166 16.7275 0.932753 16.7272 0.923747 16.6597L0.916992 16.6149V14.5201C0.916992 14.1267 0.918962 13.7335 0.922902 13.3406C0.922902 13.3265 0.927968 13.3172 0.9381 13.3127C0.952735 13.3054 0.960053 13.2936 0.960053 13.2773V12.7901C0.960053 12.7817 0.964556 12.7772 0.973562 12.7766L0.99467 12.7749C0.997485 12.7749 0.998892 12.776 0.998892 12.7783C1.00283 12.8948 1.00705 13.0113 1.01156 13.1278C1.01325 13.165 1.02901 13.1726 1.05884 13.1506L1.14243 13.0907C1.16213 13.0766 1.1717 13.0817 1.17113 13.1059C1.17057 13.116 1.17029 13.1256 1.17029 13.1346C1.17029 13.1458 1.17564 13.1515 1.18633 13.1515L6.30464 13.1709C6.34067 13.1709 6.35136 13.1872 6.33673 13.2199C6.30352 13.2936 6.31478 13.3254 6.3705 13.3153Z" fill="#009B36"/>
<path d="M31.1661 14.0548V16.4189L31.0961 16.1386C31.0945 16.1318 31.0912 16.1257 31.0865 16.1207C31.0817 16.1157 31.0757 16.112 31.069 16.1101C31.0623 16.1083 31.0552 16.1082 31.0483 16.1099C31.0415 16.1116 31.0353 16.1151 31.0302 16.12C30.9784 16.1695 30.9145 16.1895 30.8385 16.1799C30.5878 16.1479 30.3801 16.1479 30.1082 16.1892C29.3931 16.2982 28.7252 16.2027 28.0658 16.1833C27.4258 16.1647 27.0712 16.1403 26.5772 16.2103C26.5536 16.2137 26.5358 16.2047 26.524 16.1833C26.5105 16.1586 26.4894 16.1507 26.4607 16.1597C26.4314 16.1687 26.4264 16.185 26.4455 16.2087C26.4556 16.221 26.4615 16.2382 26.4632 16.2602C26.4638 16.2697 26.4593 16.2745 26.4497 16.2745C26.4413 16.2745 26.4326 16.2742 26.4236 16.2737C26.4055 16.2725 26.3954 16.2807 26.3932 16.2981C26.3881 16.3421 26.3684 16.3789 26.3341 16.4088C26.3667 15.7001 26.3484 15.0015 26.2792 14.3131C26.3051 14.1792 26.3059 14.0283 26.2817 13.8606C26.2817 13.8578 26.2817 13.8485 26.2817 13.8327C26.2823 13.8186 26.2769 13.8065 26.2657 13.7964C26.2319 13.7671 26.2294 13.7525 26.2581 13.7525H26.318C26.3445 13.7525 26.369 13.7457 26.3915 13.7322C26.4658 13.6872 26.548 13.665 26.638 13.6655C27.5341 13.6684 28.43 13.681 29.3255 13.7035C29.3553 13.7047 29.3798 13.7165 29.399 13.739C29.4102 13.7525 29.4257 13.757 29.4454 13.7525C29.4478 13.7517 29.4503 13.7513 29.4528 13.7515C29.4553 13.7516 29.4576 13.7523 29.4598 13.7533C29.735 13.8659 29.9706 13.8721 30.1665 13.7719C30.1822 13.7635 30.2092 13.7573 30.2475 13.7533C30.2565 13.7522 30.2655 13.7522 30.2745 13.7533C30.2931 13.755 30.3108 13.7517 30.3277 13.7432C30.5225 13.6503 30.6663 13.69 30.7592 13.8623C30.7716 13.8848 30.7896 13.9005 30.8132 13.9095C30.8402 13.9197 30.863 13.9346 30.8816 13.9543C30.9081 13.9808 30.9033 13.9993 30.8672 14.01C30.807 14.0269 30.7538 14.0542 30.7077 14.0919C30.6835 14.1122 30.6868 14.1254 30.7178 14.1316C30.8253 14.1519 30.9182 14.1271 30.9964 14.0573C31.0263 14.0308 31.0493 14.0359 31.0657 14.0725L31.1332 14.2262C31.1383 14.2386 31.1436 14.2386 31.1493 14.2262C31.1704 14.1806 31.1341 14.1139 31.1661 14.0548Z" fill="#009B36"/>
<path d="M31.1658 16.4186L31.1675 23.5127C31.1355 23.4592 31.1188 23.395 31.1177 23.3202C31.1172 23.2909 31.1034 23.2709 31.0763 23.2602C31.0274 23.2399 30.9877 23.2422 30.9573 23.267C30.9365 23.2844 30.9125 23.2906 30.8855 23.2855C30.7352 23.2594 30.6086 23.2036 30.4558 23.2104C30.0162 23.229 29.5763 23.2354 29.1361 23.2298C28.8178 23.2256 28.6877 23.4105 28.3357 23.2298C28.2293 23.1749 28.0824 23.229 28.0055 23.229C26.5786 23.2307 25.1517 23.2295 23.7248 23.2256C23.6184 23.225 23.4082 23.2017 23.0941 23.1555C23.0913 23.1549 23.0904 23.1535 23.0915 23.1513L23.1 23.1234C23.1073 23.0998 23.1008 23.0998 23.0806 23.1234C23.0716 23.1352 23.0595 23.1426 23.0443 23.1454C23.0409 23.1459 23.0403 23.1473 23.0426 23.1496C23.0505 23.158 23.0572 23.1648 23.0628 23.1699C23.0763 23.1811 23.0752 23.191 23.0595 23.1994L22.6348 23.4316C24.8323 21.5966 26.0653 19.2556 26.3338 16.4085C26.3681 16.3787 26.3878 16.3418 26.3929 16.2979C26.3951 16.2804 26.4052 16.2723 26.4233 16.2734C26.4323 16.274 26.441 16.2742 26.4494 16.2742C26.459 16.2742 26.4635 16.2695 26.4629 16.2599C26.4613 16.2379 26.4553 16.2208 26.4452 16.2084C26.4261 16.1847 26.4311 16.1684 26.4604 16.1594C26.4891 16.1504 26.5102 16.1583 26.5237 16.1831C26.5356 16.2044 26.5533 16.2135 26.5769 16.2101C27.0709 16.14 27.4255 16.1645 28.0655 16.1831C28.7249 16.2025 29.3928 16.2979 30.1079 16.189C30.3798 16.1476 30.5875 16.1476 30.8382 16.1797C30.9142 16.1892 30.9781 16.1693 31.0299 16.1197C31.035 16.1149 31.0412 16.1114 31.048 16.1096C31.0549 16.1079 31.062 16.108 31.0687 16.1099C31.0754 16.1118 31.0814 16.1154 31.0862 16.1204C31.0909 16.1254 31.0943 16.1316 31.0958 16.1383L31.1658 16.4186Z" fill="#009B36"/>
<path d="M6.11889 16.2755C6.23203 17.905 6.70429 19.4144 7.53567 20.8036C7.54097 20.8124 7.54433 20.822 7.54549 20.832C7.54666 20.8419 7.54561 20.8518 7.54243 20.861L6.69726 23.3493C6.68769 23.3093 6.67361 23.2786 6.65504 23.2572C6.63872 23.2387 6.61001 23.2294 6.56892 23.2294C5.51407 23.2294 4.45894 23.2294 3.40354 23.2294C3.29884 23.2294 3.16797 23.2648 3.04048 23.2412C2.61916 23.1635 2.16575 23.2159 1.73008 23.1652C1.67098 23.1584 1.57388 23.1753 1.43879 23.2159C1.41064 23.2243 1.38306 23.2223 1.35604 23.21C1.25697 23.1627 1.15481 23.15 1.04955 23.172C1.02647 23.177 1.01296 23.1677 1.00902 23.1441C1.00677 23.1311 1.00283 23.1188 0.997203 23.1069C0.985946 23.0839 0.980317 23.0853 0.980317 23.1112L0.979472 23.4075C0.979472 23.4216 0.972718 23.4303 0.959209 23.4337C0.940633 23.4382 0.931346 23.4441 0.931346 23.4514C0.940352 23.9383 0.935849 24.4249 0.917837 24.9113L0.916992 16.6149L0.923747 16.6597C0.932753 16.7272 0.943166 16.7275 0.954987 16.6605C0.974406 16.5516 0.975251 16.4731 0.983694 16.3641C0.98482 16.3467 0.989323 16.3456 0.997203 16.3608L1.02844 16.4207C1.04308 16.4489 1.05968 16.4503 1.07826 16.4249C1.1171 16.3732 1.16522 16.352 1.22264 16.3616C1.24009 16.3644 1.25754 16.365 1.27499 16.3633L1.9648 16.2949C1.99351 16.2921 2.01799 16.2806 2.03826 16.2603C2.07597 16.2231 2.11031 16.2034 2.14127 16.2012C2.28818 16.1899 2.488 16.1925 2.74074 16.2088C3.25662 16.2426 3.76744 16.2096 4.28417 16.2459C4.3731 16.2527 4.58419 16.2319 4.91741 16.1835C5.14651 16.1497 5.47383 16.1457 5.89937 16.1716C5.92076 16.1733 5.94018 16.1804 5.95763 16.1927C6.00322 16.2271 6.02686 16.2744 6.02855 16.3346C6.02866 16.3389 6.02962 16.3431 6.03139 16.347C6.03316 16.3509 6.03568 16.3544 6.03879 16.3572C6.0419 16.36 6.04553 16.362 6.04945 16.3632C6.05336 16.3644 6.05746 16.3647 6.06148 16.3641C6.08906 16.3608 6.1082 16.3312 6.11889 16.2755Z" fill="#009B36"/>
<path d="M13.0903 17.0302C13.4224 17.4298 13.8248 17.8436 14.2977 18.2714C15.5 19.358 16.9944 19.9693 18.5539 20.34C19.2598 20.5071 20.1716 20.1686 20.7247 19.7354C21.2211 19.347 21.39 18.7172 21.3757 18.1118C21.3728 17.9936 21.3211 17.9086 21.2203 17.8568C20.6253 17.5506 20.0256 17.2539 19.421 16.9669C19.4244 16.9275 19.405 16.9035 19.3628 16.8951C19.3414 16.8912 19.3299 16.8785 19.3282 16.8571C19.3225 16.7941 19.284 16.7676 19.2125 16.7777C19.208 16.7784 19.2034 16.7779 19.1992 16.7763C19.195 16.7746 19.1912 16.7719 19.1883 16.7684C19.1853 16.7648 19.1833 16.7606 19.1824 16.756C19.1814 16.7515 19.1816 16.7468 19.1829 16.7423C19.1869 16.7305 19.1903 16.7189 19.1931 16.7077C19.201 16.6761 19.2212 16.6604 19.2539 16.6604L24.4634 16.657C24.4988 16.657 24.523 16.6733 24.536 16.706C24.5461 16.7313 24.5509 16.7558 24.5503 16.7794C24.5492 16.8115 24.5605 16.8169 24.5841 16.7955L24.6711 16.7144C23.8538 22.9008 16.845 26.0873 11.584 22.7117C11.5598 22.6959 11.5339 22.6923 11.5063 22.7007L8.33587 23.7088C8.3305 23.7105 8.32476 23.7107 8.31929 23.7094C8.31382 23.708 8.30883 23.7052 8.30489 23.7011C8.30095 23.6971 8.29821 23.692 8.29697 23.6866C8.29573 23.6811 8.29604 23.6753 8.29788 23.67L9.3212 20.6583C9.32875 20.6367 9.33093 20.6136 9.32754 20.5911C9.32416 20.5685 9.31531 20.5473 9.30178 20.5291C8.4946 19.4264 7.99167 18.1622 7.79297 16.7364C8.61028 16.6238 9.2984 16.6052 9.85735 16.6806C10.3105 16.742 10.7174 16.7535 11.0782 16.7153C11.4295 16.6775 11.6634 16.6584 11.7799 16.6578C12.1013 16.6573 12.4227 16.6562 12.7441 16.6545C12.7599 16.6545 12.7694 16.6621 12.7728 16.6773L12.7813 16.7127C12.7874 16.7403 12.7765 16.753 12.7483 16.7507L12.6968 16.7457C12.6749 16.744 12.6706 16.7521 12.6842 16.7701C12.7084 16.8022 12.7407 16.8163 12.7813 16.8124C12.786 16.8119 12.7909 16.8124 12.7955 16.814C12.8 16.8155 12.8043 16.8179 12.8079 16.8212C12.8115 16.8244 12.8145 16.8284 12.8166 16.8328C12.8187 16.8372 12.8199 16.8421 12.8201 16.847L12.8209 16.8757C12.8221 16.9072 12.8339 16.912 12.8564 16.89L12.8758 16.8698C12.8806 16.865 12.8868 16.8619 12.8934 16.8606C12.9001 16.8594 12.9069 16.8602 12.9131 16.863C12.9193 16.8657 12.9245 16.8702 12.9281 16.8759C12.9317 16.8817 12.9335 16.8884 12.9332 16.8951C12.931 16.9683 12.9248 17.0431 12.9147 17.1197C12.9102 17.1557 12.9149 17.183 12.929 17.2016C12.9538 17.2337 12.9895 17.2399 13.0362 17.2202C13.061 17.21 13.0695 17.1923 13.0616 17.167C13.0526 17.1405 13.0399 17.1163 13.0236 17.0944C12.9943 17.0848 12.9811 17.0648 12.9839 17.0344C12.9861 17.0085 12.9997 16.9998 13.0244 17.0082L13.0903 17.0302Z" fill="#009B36"/>
<path d="M6.69752 23.349L5.73667 26.1868C5.73556 26.1902 5.73542 26.1938 5.73625 26.1973C5.73709 26.2008 5.73887 26.204 5.74141 26.2065C5.74394 26.209 5.74713 26.2108 5.75062 26.2117C5.7541 26.2125 5.75775 26.2123 5.76116 26.2112L11.2923 24.4542C11.3216 24.4446 11.3498 24.4472 11.3768 24.4618C15.0285 26.4147 19.4021 26.0103 22.635 23.4317L23.0597 23.1995C23.0755 23.1911 23.0766 23.1812 23.0631 23.17C23.0575 23.1649 23.0507 23.1581 23.0428 23.1497C23.0406 23.1475 23.0412 23.146 23.0445 23.1455C23.0597 23.1427 23.0718 23.1354 23.0808 23.1235C23.1011 23.0999 23.1076 23.0999 23.1003 23.1235L23.0918 23.1514C23.0907 23.1536 23.0915 23.1551 23.0944 23.1556C23.4084 23.2018 23.6187 23.2251 23.7251 23.2257C25.152 23.2296 26.5789 23.2308 28.0058 23.2291C28.0826 23.2291 28.2295 23.175 28.3359 23.2299C28.688 23.4106 28.818 23.2257 29.1364 23.2299C29.5765 23.2355 30.0164 23.2291 30.456 23.2105C30.6089 23.2037 30.7355 23.2595 30.8858 23.2856C30.9128 23.2907 30.9367 23.2845 30.9576 23.2671C30.988 23.2423 31.0277 23.24 31.0766 23.2603C31.1036 23.271 31.1174 23.291 31.118 23.3203C31.1191 23.3951 31.1357 23.4593 31.1678 23.5128C31.1734 24.8277 31.1726 25.7114 31.1653 26.164C31.1247 28.5087 29.3635 30.5325 27.077 30.953C26.7883 31.0059 26.3394 31.0323 25.7303 31.0323C19.2977 31.0335 12.865 31.0335 6.4324 31.0323C5.70234 31.0323 5.16028 30.9921 4.80623 30.9116C2.67599 30.4278 1.14607 28.6252 0.930765 26.4485C0.907124 26.2104 0.902902 25.6979 0.9181 24.911C0.936113 24.4246 0.940616 23.938 0.931609 23.4511C0.931609 23.4438 0.940897 23.4379 0.959472 23.4334C0.972981 23.43 0.979736 23.4213 0.979736 23.4072L0.98058 23.1109C0.98058 23.085 0.986209 23.0836 0.997467 23.1066C1.0031 23.1185 1.00704 23.1308 1.00929 23.1438C1.01323 23.1674 1.02674 23.1767 1.04982 23.1717C1.15507 23.1497 1.25724 23.1624 1.35631 23.2097C1.38332 23.222 1.41091 23.224 1.43905 23.2156C1.57414 23.175 1.67124 23.1581 1.73034 23.1649C2.16602 23.2156 2.61942 23.1632 3.04074 23.2409C3.16823 23.2645 3.2991 23.2291 3.4038 23.2291C4.45921 23.2291 5.51434 23.2291 6.56918 23.2291C6.61027 23.2291 6.63898 23.2384 6.6553 23.2569C6.67388 23.2783 6.68795 23.309 6.69752 23.349Z" fill="#009B36"/>
</g>
<defs>
<clipPath id="clip0_1609_6543">
<rect width="31.9156" height="32" fill="white" transform="translate(0.0839844)"/>
</clipPath>
</defs>
</svg>
